<svg width="218" height="61" viewBox="0 0 218 61" fill="none" xmlns="http://www.w3.org/2000/svg">
<path d="M140.726 21.2557L116.718 1.7644C116.718 1.7644 113.107 5.69338 112.988 11.0856C112.988 11.0856 111.669 19.5903 114.869 22.4037C117.532 24.7481 122.376 28.0465 128.287 27.6585C134.198 27.2785 139.619 23.1717 140.718 21.2476L140.726 21.2557Z" fill="#EFCFC9"></path>
<path d="M217.664 39.9451L188.611 29.7091C188.405 29.6344 188.183 29.8099 188.207 30.0364L190.904 58.1388C190.922 58.3703 191.183 58.4885 191.374 58.3593L217.74 40.4939C217.948 40.3499 217.913 40.0238 217.675 39.9461L217.664 39.9451Z" fill="#D0EFFB"></path>
<path d="M43.3472 22.3035C43.3472 22.3035 37.1992 22.6188 34.5914 27.3239C31.9836 32.0289 31.2092 33.759 31.3672 37.6799C31.5253 41.6008 35.6661 48.0359 41.664 48.9818C47.654 49.9276 49.6533 47.6559 51.6526 46.1522C53.9601 44.4222 55.8251 40.9702 56.1333 38.3024C56.4415 35.6345 56.2834 30.113 51.1943 25.4321C47.5118 22.0448 43.363 22.2954 43.363 22.2954L43.3472 22.3035Z" fill="#FFD983"></path>
<path d="M116.965 16.7288C110.137 16.7288 104.598 22.3797 104.598 29.3565C104.598 36.3332 110.129 41.9842 116.965 41.9842C123.8 41.9842 129.332 36.3332 129.332 29.3565C129.332 22.3797 123.8 16.7288 116.965 16.7288ZM116.965 36.503C113.109 36.503 109.971 33.2935 109.971 29.3565C109.971 25.4194 113.109 22.2099 116.965 22.2099C120.821 22.2099 123.958 25.4194 123.958 29.3565C123.958 33.2935 120.821 36.503 116.965 36.503Z" fill="#2B2A2A"></path>
<path d="M202.493 29.3542C202.493 21.8564 196.547 15.7819 189.211 15.7819C181.875 15.7819 175.93 21.8564 175.93 29.3542C175.93 36.852 181.875 42.9266 189.211 42.9266C196.547 42.9266 202.493 36.852 202.493 29.3542ZM182.85 29.3542C182.85 25.7615 185.7 22.8457 189.211 22.8457C192.722 22.8457 195.572 25.7615 195.572 29.3542C195.572 32.9469 192.722 35.8627 189.211 35.8627C185.7 35.8627 182.85 32.9469 182.85 29.3542Z" fill="#2B2A2A"></path>
<path d="M165.73 1.47135C165.73 0.65483 165.082 0 164.291 0H159.858C159.06 0.00808432 158.42 0.670997 158.42 1.47943V18.028C156.84 17.2924 155.085 16.872 153.228 16.872C146.321 16.872 140.727 22.5876 140.727 29.6452C140.727 36.7028 146.321 42.4184 153.228 42.4184C160.135 42.4184 165.73 36.7028 165.73 29.6452C165.73 29.3703 165.745 29.0955 165.73 28.8287V1.47135ZM153.22 35.7084C149.949 35.7084 147.293 32.9921 147.293 29.6452C147.293 26.2983 149.949 23.582 153.22 23.582C156.278 23.582 158.807 25.9749 159.115 29.0227V29.4512H159.139C159.139 29.5159 159.147 29.5805 159.147 29.6452C159.147 32.9921 156.492 35.7084 153.22 35.7084Z" fill="#2B2A2A"></path>
<path d="M94.4022 1.37434C94.4022 0.614409 93.8016 0 93.0588 0H90.4273C89.6845 0 89.0839 0.614409 89.0839 1.37434V19.1679C87.0846 17.7532 84.6665 16.9205 82.0508 16.9205C75.2232 16.9205 69.6836 22.5714 69.6836 29.5482C69.6836 36.525 75.2153 42.1759 82.0508 42.1759C88.8864 42.1759 94.0703 36.8726 94.3943 30.1949V1.36625L94.4022 1.37434ZM82.0587 36.7028C78.2024 36.7028 75.0651 33.4933 75.0651 29.5563C75.0651 25.6192 78.2024 22.4097 82.0587 22.4097C85.9151 22.4097 89.0523 25.6192 89.0523 29.5563C89.0523 33.4933 85.9151 36.7028 82.0587 36.7028Z" fill="#2B2A2A"></path>
<path d="M24.0943 0.565903C24.0943 0.250615 23.9442 0 23.6439 0H22.6877C22.3795 0 22.1346 0.258699 22.1346 0.565903V22.5714C19.9693 19.2407 16.271 17.0498 12.0748 17.0498C5.40522 17.0498 0 22.5714 0 29.3784C0 36.1854 5.40522 41.707 12.0748 41.707C12.4778 41.707 12.8809 41.6908 13.2839 41.6504C13.6869 41.61 14.0662 41.5615 14.4534 41.4887C14.8407 41.416 15.2042 41.327 15.5756 41.222C15.947 41.1169 16.2947 40.9956 16.6424 40.8501C16.9901 40.7046 17.322 40.559 17.6539 40.3893C17.9858 40.2195 18.3019 40.0336 18.6101 39.8395C18.9183 39.6455 19.2107 39.4272 19.5031 39.209C19.7955 38.9907 20.0641 38.7481 20.3249 38.4975C20.5857 38.2469 20.8386 37.9882 21.0756 37.7134C21.3127 37.4385 21.5419 37.1555 21.7552 36.8564C21.9686 36.5573 22.1741 36.2582 22.3558 35.9429C22.5376 35.6276 22.7193 35.3042 22.8774 34.9728C23.0354 34.6413 23.1856 34.2937 23.312 33.9461C23.4384 33.5984 23.557 33.2346 23.6597 32.8708C23.7624 32.5071 23.8494 32.1271 23.9126 31.7552C23.9758 31.3833 24.039 30.9872 24.0706 30.5992C24.0785 30.4779 24.0864 30.3566 24.0864 30.2354V0.573989L24.0943 0.565903ZM12.0669 39.6051C6.55107 39.6051 2.06252 35.0213 2.06252 29.3784C2.06252 23.7356 6.55107 19.1518 12.0669 19.1518C17.5828 19.1518 22.0713 23.7356 22.0713 29.3784C22.0713 35.0213 17.5828 39.6051 12.0669 39.6051Z" fill="#2B2A2A"></path>
<path d="M46.36 17.0443C39.6904 17.0443 34.2852 22.5659 34.2852 29.3729C34.2852 36.1799 39.6904 41.7015 46.36 41.7015C53.0296 41.7015 58.4348 36.1799 58.4348 29.3729C58.4348 22.5659 53.0296 17.0443 46.36 17.0443ZM46.36 39.5996C40.8441 39.5996 36.3556 35.0158 36.3556 29.3729C36.3556 23.73 40.8441 19.1462 46.36 19.1462C51.8758 19.1462 56.3644 23.73 56.3644 29.3729C56.3644 35.0158 51.8758 39.5996 46.36 39.5996Z" fill="#2B2A2A"></path>
</svg>